<?xml version="1.0" encoding="UTF-8"?>
<svg version="1.1" xmlns="http://www.w3.org/2000/svg" width="250" height="182">
<path d="M0 0 C-1.01860544 2.05116439 -2.04892424 4.09321356 -3.11328125 6.12109375 C-6.12758015 11.94350173 -8.51446054 17.8351976 -10.69140625 24.01953125 C-13.03206167 29.35063599 -15.79959228 32.30508962 -21.0625 34.75 C-21.91972656 35.15734375 -22.77695313 35.5646875 -23.66015625 35.984375 C-28.12806201 37.9236997 -32.15719357 38.65137162 -37 38 C-39.9375 36.5 -39.9375 36.5 -42 34 C-43.70055886 27.72918919 -42.97295993 22.76930837 -40 17 C-34.22880275 8.08490246 -25.89828347 3.71216388 -15.7421875 1.19140625 C-10.47195705 0.23378292 -5.34964823 -0.24316583 0 0 Z " fill="#076124" transform="translate(135,70)"/>
<path d="M0 0 C2.625 2.25 2.625 2.25 4 5 C4.09174256 9.95409848 2.70744067 13.5262826 -0.296875 17.359375 C-5.35859676 22.2353455 -12.15139113 24.76046819 -19.10546875 25.1328125 C-29.80407072 24.64191848 -39.55287102 22.06382126 -49 17 C-46.73374834 14.51583953 -44.43149315 13.00254977 -41.5 11.375 C-36.39684344 8.40561943 -32.06506773 4.84769435 -27.640625 0.953125 C-19.60983805 -4.98680618 -8.66963892 -4.38768311 0 0 Z " fill="#0A6025" transform="translate(142,44)"/>
<path d="M0 0 C-0.13277344 0.52464844 -0.26554687 1.04929687 -0.40234375 1.58984375 C-1.70310211 7.29609027 -2.19620442 12.7997066 -2.4375 18.625 C-2.95046828 29.0768703 -5.20347242 35.72212554 -13 43 C-17.75724381 46.23897451 -21.40778988 46.55005345 -27 46 C-29.52276368 44.48634179 -29.97302866 43.05962085 -31.1875 40.375 C-33.19537413 32.03459975 -32.02421397 26.43354705 -27.875 18.85546875 C-22.97091135 11.3869504 -9.64989544 0 0 0 Z " fill="#076123" transform="translate(93,9)"/>
<path d="M0 0 C3.75616928 2.33434249 7.66319373 4.08790695 11.765625 5.71875 C9.20787897 8.67476098 6.31143861 10.13008026 2.828125 11.84375 C1.78785156 12.36195313 0.74757812 12.88015625 -0.32421875 13.4140625 C-8.21678429 16.95247443 -18.88388427 17.28457603 -27.2109375 14.84765625 C-32.39124275 12.20552732 -35.14661525 9.12794573 -37.234375 3.71875 C-37.484375 0.59375 -37.484375 0.59375 -36.234375 -2.28125 C-23.99812891 -12.57523481 -11.96868446 -7.88997076 0 0 Z " fill="#076124" transform="translate(132.234375,117.28125)"/>
<path d="M0 0 C3.32416482 3.01252436 3.95072292 6.27316311 4.25 10.6875 C4.14210072 17.22140059 1.90450324 22.67802358 -2.48046875 27.56640625 C-4.84343322 29.79573263 -7.44008017 31.66150478 -10.078125 33.55078125 C-12.23386109 35.10658154 -12.23386109 35.10658154 -14.75 37.75 C-16.79795274 39.79795274 -18.3469145 40.91911331 -21 42 C-22.49781974 37.50654078 -22.26622247 33.08296758 -22.3125 28.375 C-22.34150391 27.41464844 -22.37050781 26.45429688 -22.40039062 25.46484375 C-22.47755673 16.71539453 -20.20806216 9.39618526 -14 3 C-9.78369102 -0.49351315 -5.28507784 -0.93866247 0 0 Z " fill="#066123" transform="translate(119,0)"/>
<path d="M0 0 C4.48500497 2.19853185 6.37554935 4.95166389 8.1875 9.5625 C9.70813099 17.68134721 7.07340397 24.88849991 2.83203125 31.7578125 C-0.46598842 36.40863916 -4.33092533 40.06209849 -8.8125 43.5625 C-9.00585938 42.56089844 -9.19921875 41.55929688 -9.3984375 40.52734375 C-9.66130049 39.18486492 -9.92433026 37.84241873 -10.1875 36.5 C-10.31382812 35.84322266 -10.44015625 35.18644531 -10.5703125 34.50976562 C-11.21911464 31.21709474 -11.96160426 28.04387649 -12.890625 24.8125 C-14.78476567 18.13485153 -14.33533704 13.37091179 -11.02734375 7.390625 C-8.24636678 3.20574648 -5.28105278 -0.8214971 0 0 Z " fill="#5D9532" transform="translate(176.8125,64.4375)"/>
<path d="M0 0 C0.4846875 0.37511719 0.969375 0.75023438 1.46875 1.13671875 C4.9126028 3.76596791 8.34663694 6.26757347 12.0625 8.5 C18.83630556 12.67362429 24.52598194 16.83142023 26.46484375 24.9453125 C27.2273132 29.4515926 26.96460338 32.7605927 25 37 C21.52401505 38.73799248 17.8006247 38.45581817 14 38 C7.52585741 34.7629287 2.91042362 29.43056015 0.5625 22.546875 C-1.02745505 15.34791186 -1.81242722 7.18105632 0 0 Z " fill="#076123" transform="translate(65,80)"/>
<path d="M0 0 C4.82344489 1.33060549 5.84756665 2.91553919 8.625 7 C11.20900075 14.75200226 10.27642453 23.29064656 6.90625 30.6328125 C4.7626355 34.593271 2.54015113 38.55179266 -0.375 42 C-1.035 42 -1.695 42 -2.375 42 C-2.53355469 41.39414063 -2.69210938 40.78828125 -2.85546875 40.1640625 C-4.16201976 35.47202849 -5.62098845 31.41159243 -8.0625 27.1875 C-11.14915573 21.25737961 -11.31340683 15.55178584 -10.375 9 C-8.54811217 3.74991457 -5.92077622 0 0 0 Z " fill="#076223" transform="translate(153.375,54)"/>
<path d="M0 0 C3.30740966 2.81129821 4.25745131 5.2660673 4.9375 9.4375 C5.23088583 13.74526271 4.5159329 16.39382951 2 20 C-1.21779393 23.40166787 -4.15469398 24.78858361 -8.875 25.1640625 C-13.83953021 24.78077157 -17.69399982 22.4284377 -21 18.8125 C-22.43104847 14.78767619 -22.66985708 11.22009961 -22 7 C-19.46101907 1.92203815 -16.48698485 -0.80134896 -11.125 -2.64453125 C-7.12419218 -3.31378403 -3.58829063 -1.68860735 0 0 Z " fill="#EC2E25" transform="translate(93,62)"/>
<path d="M0 0 C6.35345812 5.0827665 9.4528125 12.46908295 10.41796875 20.4609375 C10.59707934 27.91534953 9.92214406 32.83434393 4.75 38.4375 C2 40 2 40 -1.625 40 C-5 39 -5 39 -6.8125 37.4375 C-9.89951008 31.10100563 -10.96695946 24.81653193 -9 18 C-7.6352067 15.37256858 -6.11498033 12.9221092 -4.5 10.44140625 C-2.44087947 7.08997309 -1.24092381 3.72277144 0 0 Z " fill="#086124" transform="translate(153,8)"/>
<path d="M0 0 C4.56600757 3.39795912 6.89114321 7.49531807 8 13 C8.15205008 18.43579026 6.74954008 23.03312723 4.69921875 28.00390625 C3.54894723 31.28764225 3.3085125 34.54466001 3 38 C-4.13293196 34.83322417 -8.16932973 28.04038503 -11 21 C-12.93091683 14.3504851 -12.1917492 9.14707253 -9 3 C-6.57194198 -0.58427612 -4.16983127 -0.667173 0 0 Z " fill="#5C9433" transform="translate(140,80)"/>
<path d="M0 0 C2 2 2 2 2.3125 5.8125 C2.17889756 9.70806581 1.61664102 11.97450882 -1 15 C-9.56046613 21.63243322 -18.47009721 22.39829127 -29 23 C-29 19.47961808 -28.39751661 18.90781758 -26.25 16.25 C-24.21973897 13.67676218 -22.55544199 11.25714861 -21.125 8.3125 C-16.10069819 0.48050012 -9.03022102 -1.44422727 0 0 Z " fill="#5C9632" transform="translate(141,17)"/>
<path d="M0 0 C6.65009115 2.03574219 11.97935199 8.2592434 15.234375 14.28515625 C15.48703125 14.85105469 15.7396875 15.41695312 16 16 C12.39859595 17.80070202 8.26418267 17.06406635 4.3125 16.9375 C3.42626953 16.93556641 2.54003906 16.93363281 1.62695312 16.93164062 C-4.20432626 16.72877598 -7.45504596 15.60729878 -11.73974609 11.60913086 C-13.61722519 9.21190793 -13.92881044 6.98996159 -14 4 C-9.62813867 -0.51288912 -5.95225198 -0.82611326 0 0 Z " fill="#096024" transform="translate(171,46)"/>
<path d="M0 0 C0.66 0 1.32 0 2 0 C4.76231781 7.30748615 5.30169759 15.09490724 2.8125 22.5625 C0.70298947 25.39942795 -0.9081993 27.24329506 -4 29 C-7.8125 28.75 -7.8125 28.75 -11 28 C-12.69018511 22.92944466 -12.91778459 17.32145514 -10.9375 12.3125 C-8.65173932 9.58433403 -6.20003058 7.09981401 -3.62109375 4.6484375 C-1.79239354 2.89215814 -1.79239354 2.89215814 0 0 Z " fill="#5D9334" transform="translate(159,95)"/>
<path d="M0 0 C2.475 0.495 2.475 0.495 5 1 C5 6.94 5 12.88 5 19 C8.3 18.67 11.6 18.34 15 18 C15.42152344 16.86820313 15.84304687 15.73640625 16.27734375 14.5703125 C16.83067131 13.08852006 17.38405989 11.60675041 17.9375 10.125 C18.21529297 9.37863281 18.49308594 8.63226563 18.77929688 7.86328125 C20.88671875 2.2265625 20.88671875 2.2265625 22 0 C24.57107303 0.98763557 25.77345423 1.60335421 27.16015625 4.03125 C27.45792969 4.8459375 27.75570313 5.660625 28.0625 6.5 C28.55169922 7.82644531 28.55169922 7.82644531 29.05078125 9.1796875 C30.47870351 13.42232071 31.78965039 17.69042183 33 22 C31.35 22 29.7 22 28 22 C27.34 19.69 26.68 17.38 26 15 C24.02 15.33 22.04 15.66 20 16 C19.34 17.98 18.68 19.96 18 22 C12.06 22 6.12 22 0 22 C0 14.74 0 7.48 0 0 Z M22 7 C21.67 8.98 21.34 10.96 21 13 C22.32 13 23.64 13 25 13 C24.34 11.02 23.68 9.04 23 7 C22.67 7 22.34 7 22 7 Z " fill="#1B5B31" transform="translate(2,153)"/>
<path d="M0 0 C2.5625 0.875 2.5625 0.875 4.375 2.8125 C6.1388007 7.36124916 6.50354076 11.06666847 5.5625 15.875 C3.54361591 20.42502236 1.17020813 24.63082197 -1.4375 28.875 C-6.19651839 24.50672207 -9.11031945 19.19682684 -9.60546875 12.65625 C-9.20920095 7.86417428 -7.40816003 4.56582003 -4.4375 0.875 C-2.4375 -0.125 -2.4375 -0.125 0 0 Z " fill="#095F24" transform="translate(62.4375,54.125)"/>
<path d="M0 0 C2.0625 0.4375 2.0625 0.4375 4 1 C4 3.64 4 6.28 4 9 C6.97 9 9.94 9 13 9 C13 6.03 13 3.06 13 0 C14.65 0.33 16.3 0.66 18 1 C18 7.93 18 14.86 18 22 C16.35 22 14.7 22 13 22 C13 18.7 13 15.4 13 12 C10.03 12 7.06 12 4 12 C4 15.3 4 18.6 4 22 C2.35 22 0.7 22 -1 22 C-1.02887814 18.52085059 -1.04675687 15.04173169 -1.0625 11.5625 C-1.07087891 10.56927734 -1.07925781 9.57605469 -1.08789062 8.55273438 C-1.09111328 7.60849609 -1.09433594 6.66425781 -1.09765625 5.69140625 C-1.10289307 4.81685791 -1.10812988 3.94230957 -1.11352539 3.04125977 C-1 1 -1 1 0 0 Z " fill="#14612E" transform="translate(158,153)"/>
<path d="M0 0 C2.475 0.495 2.475 0.495 5 1 C5 3.64 5 6.28 5 9 C7.97 9 10.94 9 14 9 C13.67 6.03 13.34 3.06 13 0 C14.65 0 16.3 0 18 0 C18.57759916 7.34376076 19.14738028 14.63098587 19 22 C17.35 22 15.7 22 14 22 C14 18.7 14 15.4 14 12 C13.01 12.33 12.02 12.66 11 13 C8.99124558 12.72428861 6.98821313 12.39764263 5 12 C5 15.3 5 18.6 5 22 C3.35 22 1.7 22 0 22 C0 14.74 0 7.48 0 0 Z " fill="#186132" transform="translate(210,153)"/>
<path d="M0 0 C2.50534242 1.93269273 4.00038184 3.54520891 4.5234375 6.73828125 C4.6183413 12.23321137 3.88085434 15.34237725 0.1875 19.6875 C-3.54821251 21.55535626 -7.74403475 21.22400091 -11.8125 20.6875 C-14.9375 18.8125 -14.9375 18.8125 -16.8125 15.6875 C-17.59375933 11.01526286 -17.38750498 7.06751196 -15.5625 2.6875 C-11.33231823 -2.14699345 -5.82391239 -2.71782578 0 0 Z M-10.625 2.75 C-12.31443188 5.5064415 -12.68775322 7.44408375 -12.8125 10.6875 C-11.84896571 14.52011263 -11.84896571 14.52011263 -9.8125 17.6875 C-7.44072118 19.09552691 -7.44072118 19.09552691 -4.8125 18.6875 C-1.91541898 16.67563818 -0.96748862 15.16279843 0.125 11.8125 C0.20408425 7.85828758 -0.50137004 5.89326091 -2.8125 2.6875 C-5.94654161 1.57752693 -7.68573844 1.0269846 -10.625 2.75 Z " fill="#165C2E" transform="translate(69.8125,154.3125)"/>
<path d="M0 0 C13.24210988 -0.49503214 13.24210988 -0.49503214 16.89453125 1.890625 C19.70525274 4.70656119 20.20340656 6.36934831 20.375 10.25 C20.27093565 14.03916674 19.8233085 17.08294563 17.109375 19.98046875 C12.06766954 22.41729306 5.35245368 21.27925845 0 21 C0 14.07 0 7.14 0 0 Z M5 2 C5 7.28 5 12.56 5 18 C11.38427943 18.62422743 11.38427943 18.62422743 13.875 16.8125 C15.36816938 14.40683822 15.8675026 12.84869415 16 10 C15.22594981 6.70138447 15.22594981 6.70138447 13 4 C10.30447416 2.88040167 7.91421464 2.4777401 5 2 Z " fill="#135D2E" transform="translate(110,154)"/>
<path d="M0 0 C4.83018102 1.86551877 8.16253523 4.63466959 11 9 C11.36932536 10.32381557 11.70969783 11.65664095 12 13 C-1.79133439 14.75978192 -1.79133439 14.75978192 -6.25 12.25 C-9 10 -9 10 -11 7 C-10.8125 4.4375 -10.8125 4.4375 -10 2 C-6.22786948 -0.51475368 -4.47964158 -0.44796416 0 0 Z " fill="#0B6026" transform="translate(137,1)"/>
<path d="M0 0 C3.41855816 0.0550394 4.15648302 0.30642088 7.0625 2.4375 C11.51181206 8.41229048 12.63143694 13.12769817 12.25 20.375 C6.64273144 18.93723883 1.58169458 16.21288139 -2.75 12.375 C-4.65484927 8.58310379 -5.03880326 5.61078119 -4.75 1.375 C-3.75 0.375 -3.75 0.375 0 0 Z " fill="#5B9632" transform="translate(168.75,26.625)"/>
<path d="M0 0 C4.82344489 1.33060549 5.84756665 2.91553919 8.625 7 C11.20900075 14.75200226 10.27642453 23.29064656 6.90625 30.6328125 C4.7626355 34.593271 2.54015113 38.55179266 -0.375 42 C-1.035 42 -1.695 42 -2.375 42 C-2.64763672 41.03900391 -2.64763672 41.03900391 -2.92578125 40.05859375 C-4.43770045 34.85604103 -6.12500671 29.92855673 -8.375 25 C-7.715 25 -7.055 25 -6.375 25 C-6.375 25.66 -6.375 26.32 -6.375 27 C-5.715 27 -5.055 27 -4.375 27 C-3.92125 28.11375 -3.4675 29.2275 -3 30.375 C-1.65034014 33.96199008 -1.65034014 33.96199008 0.625 36 C5.83420646 27.92572999 8.9768752 20.77390231 7.625 11 C6.29329691 8.02015833 6.29329691 8.02015833 4.625 6 C4.625 5.34 4.625 4.68 4.625 4 C3.305 4 1.985 4 0.625 4 C0.295 5.32 -0.035 6.64 -0.375 8 C-2.685 8 -4.995 8 -7.375 8 C-7.57004458 10.10348074 -7.75578496 12.20782585 -7.9375 14.3125 C-8.04191406 15.48425781 -8.14632812 16.65601563 -8.25390625 17.86328125 C-8.56077434 21.03032575 -8.56077434 21.03032575 -7.375 24 C-8.035 24 -8.695 24 -9.375 24 C-11.58380119 19.58239761 -10.7984648 13.80689777 -10.375 9 C-8.60459027 3.74135724 -5.88432208 0 0 0 Z " fill="#105827" transform="translate(153.375,54)"/>
<path d="M0 0 C3.96 0 7.92 0 12 0 C12 1.32 12 2.64 12 4 C9.69 4 7.38 4 5 4 C5 5.65 5 7.3 5 9 C6.98 9 8.96 9 11 9 C10.67 9.99 10.34 10.98 10 12 C8.35 12 6.7 12 5 12 C5 14.31 5 16.62 5 19 C7.97 18.67 10.94 18.34 14 18 C13.67 19.32 13.34 20.64 13 22 C8.71 22 4.42 22 0 22 C0 14.74 0 7.48 0 0 Z " fill="#1B5A33" transform="translate(87,153)"/>
<path d="M0 0 C1.65322266 0.01740234 1.65322266 0.01740234 3.33984375 0.03515625 C4.99693359 0.04869141 4.99693359 0.04869141 6.6875 0.0625 C7.54214844 0.07410156 8.39679688 0.08570313 9.27734375 0.09765625 C8.94734375 1.41765625 8.61734375 2.73765625 8.27734375 4.09765625 C6.29734375 4.09765625 4.31734375 4.09765625 2.27734375 4.09765625 C2.27734375 5.74765625 2.27734375 7.39765625 2.27734375 9.09765625 C4.25734375 9.09765625 6.23734375 9.09765625 8.27734375 9.09765625 C7.94734375 10.08765625 7.61734375 11.07765625 7.27734375 12.09765625 C5.62734375 12.09765625 3.97734375 12.09765625 2.27734375 12.09765625 C2.27734375 14.40765625 2.27734375 16.71765625 2.27734375 19.09765625 C5.24734375 18.76765625 8.21734375 18.43765625 11.27734375 18.09765625 C10.94734375 19.41765625 10.61734375 20.73765625 10.27734375 22.09765625 C5.98734375 22.09765625 1.69734375 22.09765625 -2.72265625 22.09765625 C-2.91642663 18.61873271 -3.10297001 15.1396886 -3.28515625 11.66015625 C-3.34123047 10.66693359 -3.39730469 9.67371094 -3.45507812 8.65039062 C-3.50341797 7.70615234 -3.55175781 6.76191406 -3.6015625 5.7890625 C-3.64869385 4.91451416 -3.6958252 4.03996582 -3.74438477 3.13891602 C-3.71052258 -0.04222689 -3.19200553 0.11449087 0 0 Z " fill="#145E2B" transform="translate(136.72265625,152.90234375)"/>
<path d="M0 0 C2.43281319 0.96554248 3.74028745 1.56244333 5.09667969 3.84765625 C5.36899414 4.57855469 5.64130859 5.30945313 5.921875 6.0625 C6.22480469 6.85914063 6.52773437 7.65578125 6.83984375 8.4765625 C7.14019531 9.30929688 7.44054687 10.14203125 7.75 11 C8.06582031 11.83273438 8.38164062 12.66546875 8.70703125 13.5234375 C11 19.65787338 11 19.65787338 11 22 C8.625 22.1875 8.625 22.1875 6 22 C4 19 4 19 4 15 C1.08961458 15.02525184 1.08961458 15.02525184 -2 16 C-3.93469849 18.95071844 -3.93469849 18.95071844 -5 22 C-6.32 21.67 -7.64 21.34 -9 21 C-8.75765625 20.47792969 -8.5153125 19.95585937 -8.265625 19.41796875 C-5.84076265 14.09259797 -3.75817045 8.71268018 -1.83203125 3.1875 C-1 1 -1 1 0 0 Z M0 7 C-0.33 8.98 -0.66 10.96 -1 13 C0.32 12.67 1.64 12.34 3 12 C2.34 10.35 1.68 8.7 1 7 C0.67 7 0.34 7 0 7 Z " fill="#1C5D32" transform="translate(239,153)"/>
<path d="M0 0 C2.4375 2 2.4375 2 4 4 C3.67 4.66 3.34 5.32 3 6 C2.29875 5.649375 1.5975 5.29875 0.875 4.9375 C-2.50268586 3.8360807 -4.58080593 4.20483859 -8 5 C-8.94996755 10.23714633 -8.94996755 10.23714633 -8.4375 15.4375 C-6.2135546 17.85483196 -4.20680854 17.8113642 -1 18 C1.76864953 17.63141012 1.76864953 17.63141012 4 17 C2.125 20.875 2.125 20.875 1 22 C-3.94688013 22.64126224 -7.79228391 22.72462965 -12.125 20.125 C-14.76866127 15.71889789 -15.02524802 12.0141036 -14 7 C-10.64857272 0.86393094 -6.78535821 -0.58494467 0 0 Z " fill="#175C30" transform="translate(203,153)"/>
<path d="M0 0 C1 1 1 1 1.4375 3.8125 C1 7 1 7 -1.1875 9.375 C-6.16461868 12.29137462 -12.4557086 11.29613426 -18 11 C-16.06443398 5.72359399 -13.53972778 2.43266695 -8.5625 -0.375 C-5.39679886 -1.14712223 -3.14062693 -0.78515673 0 0 Z " fill="#5E9531" transform="translate(99,45)"/>
<path d="M0 0 C2.0625 0.4375 2.0625 0.4375 4 1 C4.08696177 4.93736123 4.14037835 8.87447628 4.1875 12.8125 C4.21263672 13.93205078 4.23777344 15.05160156 4.26367188 16.20507812 C4.27333984 17.27822266 4.28300781 18.35136719 4.29296875 19.45703125 C4.31653442 20.9416687 4.31653442 20.9416687 4.34057617 22.45629883 C4 25 4 25 2.6184082 26.8659668 C1 28 1 28 -1.1875 27.6875 C-1.785625 27.460625 -2.38375 27.23375 -3 27 C-2.67 25.865625 -2.34 24.73125 -2 23.5625 C-0.71068718 17.94542388 -0.86591074 12.40442722 -0.98632812 6.67797852 C-1.02196442 4.78564904 -1.01478599 2.89260723 -1 1 C-0.67 0.67 -0.34 0.34 0 0 Z " fill="#1D542E" transform="translate(45,153)"/>
<path d="M0 0 C2.475 0.495 2.475 0.495 5 1 C5 7.93 5 14.86 5 22 C3.35 22 1.7 22 0 22 C0 14.74 0 7.48 0 0 Z " fill="#17572D" transform="translate(77,153)"/>
<path d="M0 0 C1.29608947 0.93137592 2.58671632 1.8703566 3.875 2.8125 C4.59429687 3.33457031 5.31359375 3.85664062 6.0546875 4.39453125 C8 6 8 6 10 9 C9.38125 9.103125 8.7625 9.20625 8.125 9.3125 C5.63473516 9.87525373 5.63473516 9.87525373 4 13 C2.48520478 17.95751162 2.99686308 22.69868588 5.0625 27.4375 C5.371875 27.953125 5.68125 28.46875 6 29 C3 28 3 28 1.375 24.875 C-1.22013368 17.34911232 -1.94574745 7.70928724 0 0 Z " fill="#145C2D" transform="translate(65,80)"/>
<path d="M0 0 C-1.01860544 2.05116439 -2.04892424 4.09321356 -3.11328125 6.12109375 C-6.15966366 12.00547411 -8.57139441 17.97114063 -10.7890625 24.21484375 C-11.92274295 26.82230878 -12.83992996 28.2082656 -15 30 C-15 28.68 -15 27.36 -15 26 C-14.34 26 -13.68 26 -13 26 C-13.226875 25.236875 -13.45375 24.47375 -13.6875 23.6875 C-13.790625 22.800625 -13.89375 21.91375 -14 21 C-12.625 19.375 -12.625 19.375 -11 18 C-10.67 17.01 -10.34 16.02 -10 15 C-10.66 15 -11.32 15 -12 15 C-11.67 13.35 -11.34 11.7 -11 10 C-10.01 10.33 -9.02 10.66 -8 11 C-6.68 8.36 -5.36 5.72 -4 3 C-5.79206547 3.14084796 -7.58364917 3.28783701 -9.375 3.4375 C-10.87160156 3.55931641 -10.87160156 3.55931641 -12.3984375 3.68359375 C-14.97927613 3.84965626 -14.97927613 3.84965626 -17 5 C-17.99 4.34 -18.98 3.68 -20 3 C-13.60458407 0.00214878 -6.92728141 -0.14431836 0 0 Z " fill="#15592E" transform="translate(135,70)"/>
<path d="M0 0 C0.33 0 0.66 0 1 0 C3.20779221 7.35930736 3.20779221 7.35930736 2.25 10.3125 C1.8375 10.869375 1.425 11.42625 1 12 C0.01 13.485 0.01 13.485 -1 15 C-1.66 15 -2.32 15 -3 15 C-2.67 18.63 -2.34 22.26 -2 26 C-1.01 26.33 -0.02 26.66 1 27 C1 28.65 1 30.3 1 32 C-0.32 32.66 -1.64 33.32 -3 34 C-4.49781974 29.50654078 -4.26622247 25.08296758 -4.3125 20.375 C-4.34150391 19.41464844 -4.37050781 18.45429688 -4.40039062 17.46484375 C-4.45956545 10.75532929 -3.23865675 5.88064659 0 0 Z " fill="#0F5B28" transform="translate(101,8)"/>
<path d="M0 0 C2.475 0.495 2.475 0.495 5 1 C5 7.93 5 14.86 5 22 C3.68 22 2.36 22 1 22 C0.67 14.74 0.34 7.48 0 0 Z " fill="#215833" transform="translate(180,153)"/>
<path d="M0 0 C3.41855816 0.0550394 4.15648302 0.30642088 7.0625 2.4375 C11.51181206 8.41229048 12.63143694 13.12769817 12.25 20.375 C10.27 19.715 8.29 19.055 6.25 18.375 C6.25 17.715 6.25 17.055 6.25 16.375 C7.57 16.375 8.89 16.375 10.25 16.375 C9.79965877 14.74776701 9.33944646 13.12326336 8.875 11.5 C8.61976563 10.59507813 8.36453125 9.69015625 8.1015625 8.7578125 C7.3895685 6.22930274 7.3895685 6.22930274 5.25 4.375 C2.56160615 4.10508094 -0.04141936 4.28762643 -2.75 4.375 C-2.09 7.345 -1.43 10.315 -0.75 13.375 C-3.87810226 10.24689774 -4.15409863 9.83429693 -4.5 5.75 C-4.57734375 4.95335937 -4.6546875 4.15671875 -4.734375 3.3359375 C-4.73953125 2.68882813 -4.7446875 2.04171875 -4.75 1.375 C-3.75 0.375 -3.75 0.375 0 0 Z " fill="#5A8C39" transform="translate(168.75,26.625)"/>
<path d="M0 0 C3.88624662 1.78767345 5.11249122 3.72209918 7.125 7.4375 C7.125 8.0975 7.125 8.7575 7.125 9.4375 C6.465 9.4375 5.805 9.4375 5.125 9.4375 C3.145 5.9725 3.145 5.9725 1.125 2.4375 C-2.24962715 2.98473683 -3.95735 3.4924 -6.875 5.4375 C-8.10344823 7.8435889 -8.10344823 7.8435889 -9.0625 10.5625 C-9.40667969 11.47257812 -9.75085938 12.38265625 -10.10546875 13.3203125 C-10.35941406 14.01898438 -10.61335937 14.71765625 -10.875 15.4375 C-10.215 16.0975 -9.555 16.7575 -8.875 17.4375 C-9.535 18.4275 -10.195 19.4175 -10.875 20.4375 C-11.11555468 22.49459596 -11.11555468 22.49459596 -11 24.625 C-10.95875 25.883125 -10.9175 27.14125 -10.875 28.4375 C-14.02305896 23.71541156 -14.61305708 19.08568686 -13.875 13.4375 C-11.8436223 7.44272777 -7.25324317 -1.41911279 0 0 Z " fill="#5E8941" transform="translate(176.875,64.5625)"/>
<path d="M0 0 C1.65322266 0.01740234 1.65322266 0.01740234 3.33984375 0.03515625 C4.99693359 0.04869141 4.99693359 0.04869141 6.6875 0.0625 C7.54214844 0.07410156 8.39679688 0.08570313 9.27734375 0.09765625 C8.94734375 1.41765625 8.61734375 2.73765625 8.27734375 4.09765625 C5.96734375 4.09765625 3.65734375 4.09765625 1.27734375 4.09765625 C1.27734375 3.43765625 1.27734375 2.77765625 1.27734375 2.09765625 C0.28734375 2.59265625 0.28734375 2.59265625 -0.72265625 3.09765625 C-0.72265625 8.70765625 -0.72265625 14.31765625 -0.72265625 20.09765625 C0.59734375 19.76765625 1.91734375 19.43765625 3.27734375 19.09765625 C5.93870223 18.70428027 8.60456148 18.40948085 11.27734375 18.09765625 C10.94734375 19.41765625 10.61734375 20.73765625 10.27734375 22.09765625 C5.98734375 22.09765625 1.69734375 22.09765625 -2.72265625 22.09765625 C-2.91642663 18.61873271 -3.10297001 15.1396886 -3.28515625 11.66015625 C-3.34123047 10.66693359 -3.39730469 9.67371094 -3.45507812 8.65039062 C-3.50341797 7.70615234 -3.55175781 6.76191406 -3.6015625 5.7890625 C-3.64869385 4.91451416 -3.6958252 4.03996582 -3.74438477 3.13891602 C-3.71052258 -0.04222689 -3.19200553 0.11449087 0 0 Z " fill="#1E5A33" transform="translate(136.72265625,152.90234375)"/>
<path d="M0 0 C0.99 0.33 1.98 0.66 3 1 C1.7934375 1.5878125 1.7934375 1.5878125 0.5625 2.1875 C-2.19154561 3.77133874 -2.19154561 3.77133874 -2.9375 6.5625 C-2.958125 7.366875 -2.97875 8.17125 -3 9 C-2.34 9.66 -1.68 10.32 -1 11 C-1 12.32 -1 13.64 -1 15 C-0.34 15 0.32 15 1 15 C1 15.99 1 16.98 1 18 C7.83782175 20.4420792 14.79431807 20.62022758 22 21 C22 21.33 22 21.66 22 22 C5.16221755 22.92969351 5.16221755 22.92969351 -1.2890625 18.5546875 C-4.23011842 15.88222116 -5.55385956 13.74681842 -7 10 C-7.125 6.8125 -7.125 6.8125 -6 4 C-3.125 1.5625 -3.125 1.5625 0 0 Z " fill="#135F2B" transform="translate(102,111)"/>
<path d="M0 0 C1 1 1 1 1.4375 3.8125 C1 7 1 7 -1.1875 9.375 C-6.16461868 12.29137462 -12.4557086 11.29613426 -18 11 C-16.87548273 8.0280615 -15.77706209 5.66559313 -14 3 C-13.34 3 -12.68 3 -12 3 C-12 3.99 -12 4.98 -12 6 C-11.34 6 -10.68 6 -10 6 C-10 6.66 -10 7.32 -10 8 C-11.65 8 -13.3 8 -15 8 C-11.52487282 9.15837573 -9.86329714 8.77265943 -6.3125 8.0625 C-5.31863281 7.86785156 -4.32476562 7.67320313 -3.30078125 7.47265625 C-2.54152344 7.31667969 -1.78226563 7.16070312 -1 7 C-1.33 5.35 -1.66 3.7 -2 2 C-4.97 2 -7.94 2 -11 2 C-7.41927775 -1.58072225 -4.66904707 -1.01501023 0 0 Z " fill="#5F8644" transform="translate(99,45)"/>
<path d="M0 0 C0.99 0.33 1.98 0.66 3 1 C3.69258229 2.99117408 4.35747635 4.9921136 5 7 C5.72123047 7.67869141 5.72123047 7.67869141 6.45703125 8.37109375 C8.46112965 10.48681283 8.92518173 12.392333 9.6875 15.1875 C10.06455078 16.53908203 10.06455078 16.53908203 10.44921875 17.91796875 C10.63097656 18.60503906 10.81273437 19.29210937 11 20 C8.625 20.1875 8.625 20.1875 6 20 C3.5705484 16.3558226 3.83820425 14.28758728 4 10 C3.34 10 2.68 10 2 10 C0.68373308 6.38026598 0 3.90432869 0 0 Z " fill="#0C5726" transform="translate(239,155)"/>
<path d="M0 0 C0.33 0 0.66 0 1 0 C1.85044576 11.10304188 -1.7941868 20.47655238 -9 29 C-9.66 29 -10.32 29 -11 29 C-11.27263672 28.03900391 -11.27263672 28.03900391 -11.55078125 27.05859375 C-13.06270045 21.85604103 -14.75000671 16.92855673 -17 12 C-16.34 12 -15.68 12 -15 12 C-15 12.66 -15 13.32 -15 14 C-14.34 14 -13.68 14 -13 14 C-12.54625 15.11375 -12.0925 16.2275 -11.625 17.375 C-10.27534014 20.96199008 -10.27534014 20.96199008 -8 23 C-3.1999182 15.55987321 -0.56133113 8.84096528 0 0 Z " fill="#205C30" transform="translate(162,67)"/>
<path d="M0 0 C0.66 0.33 1.32 0.66 2 1 C1.34 1.66 0.68 2.32 0 3 C-1.79119547 6.95555667 -3.38709805 10.96774513 -5 15 C-0.38 15 4.24 15 9 15 C5.52177962 17.31881359 2.53897419 17.69128317 -1.5 18.1875 C-2.17675781 18.28224609 -2.85351562 18.37699219 -3.55078125 18.47460938 C-6.78518318 18.89246603 -8.86486683 19.04504439 -12 18 C-6 9 -6 9 0 0 Z " fill="#58813D" transform="translate(123,21)"/>
<path d="M0 0 C0.66 0 1.32 0 2 0 C2.04898438 0.62648437 2.09796875 1.25296875 2.1484375 1.8984375 C2.22320312 2.71570312 2.29796875 3.53296875 2.375 4.375 C2.44460937 5.18710937 2.51421875 5.99921875 2.5859375 6.8359375 C2.82892588 9.20334191 2.82892588 9.20334191 5 11 C5 11.99 5 12.98 5 14 C6.65 13.67 8.3 13.34 10 13 C10 13.66 10 14.32 10 15 C12.91517292 13.92598892 14.77810176 13.22189824 17 11 C19.625 10.375 19.625 10.375 22 10 C17.74867193 14.48751296 15.15919658 17.04001694 8.9375 17.3125 C5 17 5 17 3.125 15.875 C-0.02283095 10.62861508 -0.20477175 5.93838066 0 0 Z " fill="#16582B" transform="translate(61,38)"/>
<path d="M0 0 C3.32416482 3.01252436 3.95072292 6.27316311 4.25 10.6875 C4.18366079 15.82405008 2.9489438 20.89931362 -0.60546875 24.73046875 C-1.06566406 25.14941406 -1.52585937 25.56835938 -2 26 C-1.5844768 23.50686079 -1.23556447 21.41358648 0.0234375 19.203125 C1.28204596 16.36370432 1.26548362 14.09672335 1.25 11 C1.25515625 9.96875 1.2603125 8.9375 1.265625 7.875 C1.00499165 5.05402722 0.45296344 3.39854282 -1 1 C-6.9104494 2.53671684 -11.87734055 4.5848937 -17 8 C-14.33766208 0.54545382 -7.16903373 -1.42253911 0 0 Z " fill="#18592E" transform="translate(119,0)"/>
<path d="M0 0 C2.91788125 2.91788125 3.96659076 4.38861095 4.1953125 8.57421875 C4.1820639 9.9454488 4.15828025 11.31660985 4.125 12.6875 C4.11597656 13.38939453 4.10695312 14.09128906 4.09765625 14.81445312 C4.07413704 16.54311525 4.03826713 18.27160145 4 20 C2.35 20 0.7 20 -1 20 C-1.10152799 13.2314676 -1.03026944 6.69675136 0 0 Z " fill="#0F5D2A" transform="translate(225,155)"/>
<path d="M0 0 C-0.99 0.495 -0.99 0.495 -2 1 C-2.33 1.99 -2.66 2.98 -3 4 C-5.475 3.505 -5.475 3.505 -8 3 C-8.33 3.99 -8.66 4.98 -9 6 C-9.5775 6.2475 -10.155 6.495 -10.75 6.75 C-14.82514263 9.01396813 -17.35546211 13.06638632 -18.8125 17.4375 C-19.07122725 20.97343914 -19.05720022 24.45358637 -19 28 C-19 28.99 -19 29.98 -19 31 C-21.52719363 27.8662799 -22.2501764 25.6163469 -21.9375 21.6875 C-20.51085774 12.72640332 -16.24689566 7.29204904 -9 2 C-3.66442953 -1.22147651 -3.66442953 -1.22147651 0 0 Z " fill="#18572F" transform="translate(114,75)"/>
<path d="M0 0 C0.66 0.33 1.32 0.66 2 1 C1.96519531 1.72445313 1.93039063 2.44890625 1.89453125 3.1953125 C1.73517009 8.88678251 1.6639806 13.12427934 5 18 C5.66 18.33 6.32 18.66 7 19 C7.268125 18.360625 7.53625 17.72125 7.8125 17.0625 C9 15 9 15 12 14 C14.1875 14.4375 14.1875 14.4375 16 15 C14.63016497 18.16115776 14.0109362 18.9927092 11 21 C4.9076006 20.78241431 4.9076006 20.78241431 2.1875 18.4375 C-0.97361055 11.94890465 -1.24102348 6.94973149 0 0 Z " fill="#175C2C" transform="translate(144,27)"/>
<path d="M0 0 C0.99 0.33 1.98 0.66 3 1 C3.33 6.94 3.66 12.88 4 19 C2.68 19 1.36 19 0 19 C-1.17245774 15.48262679 -1.13266285 12.6424868 -1.125 8.9375 C-1.12757812 7.68839844 -1.13015625 6.43929687 -1.1328125 5.15234375 C-1 2 -1 2 0 0 Z " fill="#0A5F24" transform="translate(3,155)"/>
<path d="M0 0 C4.53022563 3.90102763 7.32853679 8.20414706 9 14 C8.67 14.99 8.34 15.98 8 17 C5.69 12.71 3.38 8.42 1 4 C1 5.98 1 7.96 1 10 C0.34 10 -0.32 10 -1 10 C-1.33 10.99 -1.66 11.98 -2 13 C-3.87617698 14.84499398 -5.92737609 16.3683599 -8 18 C-6.56368119 14.16981651 -4.80130736 10.57869509 -2.953125 6.9375 C-1.8382781 4.67125383 -0.88660749 2.36428664 0 0 Z " fill="#185C2F" transform="translate(153,8)"/>
<path d="M0 0 C2.0625 0.4375 2.0625 0.4375 4 1 C4.05416188 2.60379341 4.09286638 4.20811406 4.125 5.8125 C4.14820313 6.70582031 4.17140625 7.59914062 4.1953125 8.51953125 C4 11 4 11 2 14 C1.01 14 0.02 14 -1 14 C-1.02685938 11.85423363 -1.04633088 9.70837355 -1.0625 7.5625 C-1.07410156 6.36753906 -1.08570313 5.17257813 -1.09765625 3.94140625 C-1 1 -1 1 0 0 Z " fill="#165E31" transform="translate(158,153)"/>
<path d="M0 0 C0.33 0 0.66 0 1 0 C1 5.61 1 11.22 1 17 C1.66 17 2.32 17 3 17 C3 12.05 3 7.1 3 2 C3.33 2 3.66 2 4 2 C4 6.29 4 10.58 4 15 C6.31 15 8.62 15 11 15 C11 15.99 11 16.98 11 18 C7.04 18 3.08 18 -1 18 C-0.505 9.09 -0.505 9.09 0 0 Z " fill="#205B35" transform="translate(111,157)"/>
<path d="M0 0 C1.32 0.33 2.64 0.66 4 1 C4.625 4.375 4.625 4.375 5 8 C4.34 8.66 3.68 9.32 3 10 C2.83322718 13.58343976 2.83322718 13.58343976 3 17 C2.01 16.67 1.02 16.34 0 16 C0 10.72 0 5.44 0 0 Z " fill="#0A5F26" transform="translate(88,155)"/>
<path d="M0 0 C2.63534355 4.5177318 2.02931005 8.01813937 1 13 C0.30744769 15.03939436 -0.47970704 17.01330193 -1.30078125 19.00390625 C-2.45105277 22.28764225 -2.6914875 25.54466001 -3 29 C-6.16115776 27.63016497 -6.9927092 27.0109362 -9 24 C-8.01 24.33 -7.02 24.66 -6 25 C-3.00318992 16.70624517 -0.23080993 8.91765652 0 0 Z " fill="#648A48" transform="translate(146,89)"/>
<path d="M0 0 C2.4375 0.0625 2.4375 0.0625 5 1 C8.52892746 4.77230176 8.35374816 8.79438165 8.3984375 13.6953125 C8 16 8 16 5 19 C5.33 15.04 5.66 11.08 6 7 C4.02 7.99 4.02 7.99 2 9 C1.67 7.68 1.34 6.36 1 5 C1.66 4.67 2.32 4.34 3 4 C3 3.34 3 2.68 3 2 C1.35 2 -0.3 2 -2 2 C-1.34 1.34 -0.68 0.68 0 0 Z " fill="#185A2D" transform="translate(60,54)"/>
<path d="M0 0 C0.99 0.33 1.98 0.66 3 1 C3 6.94 3 12.88 3 19 C1.68 19.33 0.36 19.66 -1 20 C-0.75443359 19.00419922 -0.75443359 19.00419922 -0.50390625 17.98828125 C0.10603857 14.37116663 0.10795513 10.84139292 0.0625 7.1875 C0.05798828 6.49462891 0.05347656 5.80175781 0.04882812 5.08789062 C0.03713156 3.39188932 0.01919924 1.69593297 0 0 Z " fill="#076127" transform="translate(78,155)"/>
<path d="M0 0 C3.49722456 2.97264088 4.22381418 5.40223201 4.75 9.8125 C4.85011115 11.2072304 4.93912884 12.60300686 5 14 C4.67 14 4.34 14 4 14 C3.731875 13.113125 3.46375 12.22625 3.1875 11.3125 C2.0819322 8.2285477 0.69898404 5.7801557 -1 3 C-1 2.34 -1 1.68 -1 1 C-2.85625 0.814375 -2.85625 0.814375 -4.75 0.625 C-7.8762197 0.24253695 -10.28879237 -0.30549523 -13 -2 C-8.16876378 -3.60309202 -4.46917757 -2.10314239 0 0 Z " fill="#C83A32" transform="translate(93,62)"/>
<path d="M0 0 C3.69516129 0.63709677 3.69516129 0.63709677 5.3125 2.5625 C7.05583777 4.31873397 7.05583777 4.31873397 10.3125 4.375 C14.20936039 3.97870911 16.64419771 2.96437207 20 1 C19.625 3.4375 19.625 3.4375 19 6 C15.53081128 7.73459436 11.79303468 7.47173877 8 7 C4.1973971 4.9949912 2.38209159 3.57313738 0 0 Z " fill="#1C5C35" transform="translate(71,111)"/>
<path d="M0 0 C0.9796875 -0.01417969 1.959375 -0.02835938 2.96875 -0.04296875 C5.5 0.1875 5.5 0.1875 7.5 2.1875 C7.94370229 7.77814885 7.94370229 7.77814885 7.5 10.1875 C5.98046875 11.94140625 5.98046875 11.94140625 4.5 13.1875 C4.51160156 12.47722656 4.52320313 11.76695313 4.53515625 11.03515625 C4.54417969 10.11605469 4.55320313 9.19695313 4.5625 8.25 C4.57410156 7.33347656 4.58570313 6.41695312 4.59765625 5.47265625 C4.75949049 3.22156673 4.75949049 3.22156673 3.5 2.1875 C-1.6744687 1.87703188 -5.64730934 2.60294795 -10.5 4.1875 C-7.02494361 0.5544865 -5.03152647 0.03310215 0 0 Z " fill="#5E8644" transform="translate(135.5,16.8125)"/>
<path d="M0 0 C3.83668453 3.432823 5.90751103 5.93482387 7 11 C7.14118093 13.69217435 7.09309962 16.30011096 7 19 C5.02 18.34 3.04 17.68 1 17 C1 16.34 1 15.68 1 15 C2.32 15 3.64 15 5 15 C2.81386858 7.39182154 2.81386858 7.39182154 0 0 Z " fill="#648C42" transform="translate(174,28)"/>
<path d="M0 0 C0.56203125 0.33773437 1.1240625 0.67546875 1.703125 1.0234375 C4.39726644 2.1689058 5.88038233 2.0470026 8.75 1.625 C9.94882813 1.45871094 9.94882813 1.45871094 11.171875 1.2890625 C11.77515625 1.19367188 12.3784375 1.09828125 13 1 C11.125 4.875 11.125 4.875 10 6 C7.32941149 6.14115161 4.67567762 6.04247107 2 6 C1.34 4.02 0.68 2.04 0 0 Z " fill="#195E30" transform="translate(194,169)"/>
<path d="M0 0 C9.52914352 -0.51048983 15.51975234 2.23397576 23 8 C22.67 8.66 22.34 9.32 22 10 C20.35310365 9.02262231 18.70751146 8.0430468 17.0625 7.0625 C16.14597656 6.51722656 15.22945312 5.97195312 14.28515625 5.41015625 C12 4 12 4 11 3 C8.41977858 2.71778828 5.83969815 2.55179803 3.25 2.37890625 C2.5075 2.25386719 1.765 2.12882812 1 2 C0.67 1.34 0.34 0.68 0 0 Z " fill="#185A30" transform="translate(108,109)"/>
<path d="M0 0 C0.66 0 1.32 0 2 0 C2 6.27 2 12.54 2 19 C1.34 18.67 0.68 18.34 0 18 C-0.37890625 15.6015625 -0.37890625 15.6015625 -0.5625 12.625 C-0.76686657 9.46357425 -0.99377883 7.01866352 -2 4 C-1.0625 1.8125 -1.0625 1.8125 0 0 Z " fill="#0C5E29" transform="translate(182,155)"/>
<path d="M0 0 C1.98 0.66 3.96 1.32 6 2 C6 2.99 6 3.98 6 5 C12.83782175 7.4420792 19.79431807 7.62022758 27 8 C27 8.33 27 8.66 27 9 C10.66426558 9.90197307 10.66426558 9.90197307 3.6015625 5.484375 C1.79888974 3.81360513 0.95195105 2.25006611 0 0 Z " fill="#1E5C36" transform="translate(97,124)"/>
<path d="M0 0 C0.66 0 1.32 0 2 0 C3.64624411 4.33118987 4.27185655 7.93437493 4.25 12.5625 C4.25515625 13.65691406 4.2603125 14.75132813 4.265625 15.87890625 C4.00162841 18.98086614 3.31501748 21.19776037 2 24 C0.80169207 20.40507621 1.14562469 17.42182516 1.5625 13.6875 C2.02984866 8.49992988 1.9079623 4.8260223 0 0 Z " fill="#638B43" transform="translate(159,95)"/>
<path d="M0 0 C0 0.66 0 1.32 0 2 C-0.66 2 -1.32 2 -2 2 C-2.66 3.65 -3.32 5.3 -4 7 C-4.99 7 -5.98 7 -7 7 C-7 10.96 -7 14.92 -7 19 C-9.37160148 16.62839852 -9.31983352 15.99378878 -9.375 12.75 C-9.27862967 8.14646345 -8.02896394 5.54821491 -5 2 C-2 0 -2 0 0 0 Z " fill="#D03A32" transform="translate(80,61)"/>
<path d="M0 0 C1.485 0.99 1.485 0.99 3 2 C3.29296875 4.3828125 3.29296875 4.3828125 3.1875 7.125 C3.16042969 8.03507813 3.13335937 8.94515625 3.10546875 9.8828125 C3.07066406 10.58148438 3.03585938 11.28015625 3 12 C4.65 12.33 6.3 12.66 8 13 C8 13.33 8 13.66 8 14 C5.66705225 14.04241723 3.33297433 14.04092937 1 14 C0 13 0 13 -0.09765625 10.05859375 C-0.08605469 8.86363281 -0.07445312 7.66867188 -0.0625 6.4375 C-0.05347656 5.23996094 -0.04445312 4.04242188 -0.03515625 2.80859375 C-0.02355469 1.88175781 -0.01195312 0.95492187 0 0 Z " fill="#085F25" transform="translate(135,160)"/>
<path d="M0 0 C5.40796933 1.31901691 9.40828123 3.77328123 13 8 C13.9375 11.375 13.9375 11.375 14 14 C12.125 13.375 12.125 13.375 10 12 C9.5978125 10.5459375 9.5978125 10.5459375 9.1875 9.0625 C8.25722539 5.62179835 8.25722539 5.62179835 4.4375 4.3125 C3.303125 3.879375 2.16875 3.44625 1 3 C0.67 2.01 0.34 1.02 0 0 Z " fill="#17582F" transform="translate(75,89)"/>
<path d="M0 0 C0.33 0 0.66 0 1 0 C1.56707317 16.1300813 1.56707317 16.1300813 -2 23 C-2.9700616 24.02906778 -3.96439702 25.03691824 -5 26 C-4.47962761 23.84345672 -3.91537132 21.71621796 -3.28125 19.58984375 C-1.35593247 13.05339072 -0.38136358 6.79879202 0 0 Z " fill="#15532A" transform="translate(89,21)"/>
<path d="M0 0 C1.16228962 2.24155855 2.06770803 4.24262043 2.75 6.6875 C3.36875 7.8321875 3.36875 7.8321875 4 9 C7.05272465 9.89830839 7.05272465 9.89830839 10 10 C9.01 10.495 9.01 10.495 8 11 C8.33 11.99 8.66 12.98 9 14 C8.01 15.485 8.01 15.485 7 17 C-0.40363128 7.06354749 -0.40363128 7.06354749 0 0 Z " fill="#608D3F" transform="translate(129,96)"/>
<path d="M0 0 C0.99 0 1.98 0 3 0 C4.76462683 3.08809695 5 4.23312136 5 8 C5.66 8 6.32 8 7 8 C7 9.65 7 11.3 7 13 C6.34 13 5.68 13 5 13 C1.96659855 8.95546473 1.06821439 4.84804991 0 0 Z " fill="#0B5F25" transform="translate(24,156)"/>
<path d="M0 0 C0.33 0.99 0.66 1.98 1 3 C-1.40972575 6.57807763 -3.017157 8.5085785 -6.875 10.4375 C-10.50998785 11.09179781 -13.39556623 10.72088675 -17 10 C-17 9.67 -17 9.34 -17 9 C-13.7 9 -10.4 9 -7 9 C-7 8.34 -7 7.68 -7 7 C-6.21625 6.54625 -5.4325 6.0925 -4.625 5.625 C-1.8764051 3.92348887 -1.12078968 2.95480916 0 0 Z " fill="#CB3B36" transform="translate(96,76)"/>
<path d="M0 0 C1.98 0.495 1.98 0.495 4 1 C4 6.61 4 12.22 4 18 C3.67 18 3.34 18 3 18 C2.67 13.05 2.34 8.1 2 3 C1.34 4.65 0.68 6.3 0 8 C-0.33 8 -0.66 8 -1 8 C-1.04241723 5.66705225 -1.04092937 3.33297433 -1 1 C-0.67 0.67 -0.34 0.34 0 0 Z " fill="#1F5A35" transform="translate(45,153)"/>
<path d="M0 0 C2.475 0.495 2.475 0.495 5 1 C5 6.61 5 12.22 5 18 C4.67 18 4.34 18 4 18 C3.67 13.05 3.34 8.1 3 3 C2.34 3 1.68 3 1 3 C1 4.98 1 6.96 1 9 C0.67 9 0.34 9 0 9 C0 6.03 0 3.06 0 0 Z " fill="#1C5731" transform="translate(171,153)"/>
<path d="M0 0 C2.91227269 3.28804981 4.49701212 5.59885603 5 10 C6.32 9.67 7.64 9.34 9 9 C8.34 10.65 7.68 12.3 7 14 C3.28576708 10.79807507 1.6675749 7.58583098 0 3 C0 2.01 0 1.02 0 0 Z " fill="#1A532E" transform="translate(54,69)"/>
<path d="M0 0 C1.32 0.66 2.64 1.32 4 2 C2.54634731 3.17249353 1.08692581 4.33783816 -0.375 5.5 C-1.18710938 6.1496875 -1.99921875 6.799375 -2.8359375 7.46875 C-5 9 -5 9 -7 9 C-6.67 7.68 -6.34 6.36 -6 5 C-5.01 5 -4.02 5 -3 5 C-2.690625 4.360625 -2.38125 3.72125 -2.0625 3.0625 C-1 1 -1 1 0 0 Z " fill="#135725" transform="translate(113,25)"/>
<path d="M0 0 C-0.66 3.3 -1.32 6.6 -2 10 C-2.33 10 -2.66 10 -3 10 C-3 7.69 -3 5.38 -3 3 C-3.7425 3.515625 -4.485 4.03125 -5.25 4.5625 C-8 6 -8 6 -10.171875 5.58984375 C-10.77515625 5.39519531 -11.3784375 5.20054688 -12 5 C-10.37750059 4.16180842 -8.75191503 3.3295884 -7.125 2.5 C-6.22007813 2.0359375 -5.31515625 1.571875 -4.3828125 1.09375 C-2 0 -2 0 0 0 Z " fill="#17542F" transform="translate(93,9)"/>
<path d="M0 0 C0.66 0 1.32 0 2 0 C3.125 7.75 3.125 7.75 2 10 C1.01 10 0.02 10 -1 10 C-1.02689216 8.52093108 -1.04634621 7.04172517 -1.0625 5.5625 C-1.07410156 4.73878906 -1.08570313 3.91507813 -1.09765625 3.06640625 C-1 1 -1 1 0 0 Z " fill="#095B24" transform="translate(55,162)"/>
<path d="M0 0 C0.99 0.33 1.98 0.66 3 1 C1.92173635 2.27513763 0.83714481 3.54492569 -0.25 4.8125 C-0.85328125 5.52019531 -1.4565625 6.22789063 -2.078125 6.95703125 C-3.92370398 8.91889671 -5.79945332 10.45669625 -8 12 C-8 11.01 -8 10.02 -8 9 C-7.34 9 -6.68 9 -6 9 C-5.938125 8.38125 -5.87625 7.7625 -5.8125 7.125 C-5 5 -5 5 -2.4375 3.75 C-1.633125 3.5025 -0.82875 3.255 0 3 C0 2.01 0 1.02 0 0 Z " fill="#5F8342" transform="translate(176,96)"/>
<path d="M0 0 C2.98683086 2.98683086 3.97934827 4.39077383 4.125 8.6875 C4.08375 9.780625 4.0425 10.87375 4 12 C3.01 12.495 3.01 12.495 2 13 C0.24252386 8.49646738 -0.19294408 4.82360189 0 0 Z " fill="#074B1D" transform="translate(225,155)"/>
<path d="M0 0 C1.27875 0.165 2.5575 0.33 3.875 0.5 C8.9284158 1.07041736 13.92062649 1.09543708 19 1 C19 1.66 19 2.32 19 3 C16.77308629 3.25011345 14.54324878 3.47428352 12.3125 3.6875 C11.07113281 3.81511719 9.82976562 3.94273438 8.55078125 4.07421875 C4.69788082 3.99368508 3.01319946 3.33335713 0 1 C0 0.67 0 0.34 0 0 Z " fill="#236036" transform="translate(130,11)"/>
<path d="M0 0 C0.66 0 1.32 0 2 0 C2 0.99 2 1.98 2 3 C2.66 3 3.32 3 4 3 C4 3.66 4 4.32 4 5 C2.35 5 0.7 5 -1 5 C-0.01 6.485 -0.01 6.485 1 8 C-0.65 8 -2.3 8 -4 8 C-2.87548273 5.0280615 -1.77706209 2.66559313 0 0 Z " fill="#577937" transform="translate(85,48)"/>
<path d="M0 0 C0.99 1.32 1.98 2.64 3 4 C0.64341603 5.17829199 -0.52573236 5.04414372 -3.1328125 4.87890625 C-3.93847656 4.83056641 -4.74414062 4.78222656 -5.57421875 4.73242188 C-6.41597656 4.67634766 -7.25773438 4.62027344 -8.125 4.5625 C-9.39923828 4.48418945 -9.39923828 4.48418945 -10.69921875 4.40429688 C-12.79979124 4.27448622 -14.89994191 4.1378826 -17 4 C-17 3.67 -17 3.34 -17 3 C-11.39 3 -5.78 3 0 3 C0 2.01 0 1.02 0 0 Z " fill="#225734" transform="translate(184,58)"/>
<path d="M0 0 C0 0.66 0 1.32 0 2 C-2.58789062 3.07421875 -2.58789062 3.07421875 -5.17578125 4.1484375 C-7.26533932 5.06806692 -7.26533932 5.06806692 -10 7 C-8.07091409 1.3611335 -6.01450566 -0.32510841 0 0 Z " fill="#15562E" transform="translate(155,54)"/>
<path d="M0 0 C0.66 0.33 1.32 0.66 2 1 C1.401875 1.721875 0.80375 2.44375 0.1875 3.1875 C-2.0352811 5.91314203 -2.0352811 5.91314203 -3.625 8.8125 C-4.07875 9.534375 -4.5325 10.25625 -5 11 C-5.66 11 -6.32 11 -7 11 C-5.5140084 6.40693504 -3.14985318 3.56430755 0 0 Z " fill="#135227" transform="translate(71,21)"/>
<path d="M0 0 C0.33 0.66 0.66 1.32 1 2 C1.66 2 2.32 2 3 2 C3.33 3.32 3.66 4.64 4 6 C2.35 6 0.7 6 -1 6 C-1.33 4.35 -1.66 2.7 -2 1 C-1.34 0.67 -0.68 0.34 0 0 Z " fill="#155D2F" transform="translate(246,169)"/>
<path d="M0 0 C0.66 0.33 1.32 0.66 2 1 C2 3.97 2 6.94 2 10 C1.01 10.495 1.01 10.495 0 11 C-1.125 3.375 -1.125 3.375 0 0 Z " fill="#0A5E24" transform="translate(46,155)"/>
<path d="M0 0 C0 3 0 3 -2 6 C-2.99 6.33 -3.98 6.66 -5 7 C-5.33 7.66 -5.66 8.32 -6 9 C-8.0625 9.625 -8.0625 9.625 -10 10 C-10 9.34 -10 8.68 -10 8 C-8.38542921 6.56418526 -6.70780925 5.19855217 -5 3.875 C-4.071875 3.15054688 -3.14375 2.42609375 -2.1875 1.6796875 C-1.465625 1.12539063 -0.74375 0.57109375 0 0 Z " fill="#1A5C2F" transform="translate(113,46)"/>
<path d="M0 0 C0.66 0.33 1.32 0.66 2 1 C2 2.65 2 4.3 2 6 C0.02 6.99 0.02 6.99 -2 8 C-2 6.02 -2 4.04 -2 2 C-1.34 2 -0.68 2 0 2 C0 1.34 0 0.68 0 0 Z " fill="#166133" transform="translate(100,34)"/>
<path d="M0 0 C1.5 1 1.5 1 3 3 C3.27345479 5.71846235 3.13491285 8.25677199 3 11 C2.34 11 1.68 11 1 11 C1 8.36 1 5.72 1 3 C0.34 3 -0.32 3 -1 3 C-0.67 2.01 -0.34 1.02 0 0 Z " fill="#066224" transform="translate(70,157)"/>
<path d="M0 0 C1.65 0 3.3 0 5 0 C5 2.64 5 5.28 5 8 C4.34 6.68 3.68 5.36 3 4 C2.34 4.66 1.68 5.32 1 6 C0.67 4.02 0.34 2.04 0 0 Z " fill="#155E31" transform="translate(223,153)"/>
<path d="M0 0 C0.33 0.99 0.66 1.98 1 3 C0.67 3.66 0.34 4.32 0 5 C-3.3 5 -6.6 5 -10 5 C-10 4.67 -10 4.34 -10 4 C-9.36191406 3.79503906 -8.72382812 3.59007813 -8.06640625 3.37890625 C-7.24011719 3.10949219 -6.41382812 2.84007813 -5.5625 2.5625 C-4.73878906 2.29566406 -3.91507812 2.02882813 -3.06640625 1.75390625 C-1.03780412 1.17844506 -1.03780412 1.17844506 0 0 Z " fill="#115D2E" transform="translate(90,112)"/>
<path d="M0 0 C1.89213369 2.38573379 3.02391783 4.07175348 4 7 C3.01 7.33 2.02 7.66 1 8 C0.01 7.34 -0.98 6.68 -2 6 C-2 5.34 -2 4.68 -2 4 C-1.34 3.67 -0.68 3.34 0 3 C0 2.01 0 1.02 0 0 Z " fill="#165C2F" transform="translate(57,167)"/>
<path d="M0 0 C0.66 0 1.32 0 2 0 C2 2.31 2 4.62 2 7 C-1.16115776 5.63016497 -1.9927092 5.0109362 -4 2 C-3.01 2.33 -2.02 2.66 -1 3 C-0.67 2.01 -0.34 1.02 0 0 Z " fill="#5E8442" transform="translate(141,111)"/>
<path d="M0 0 C0.99 0.33 1.98 0.66 3 1 C2.34 3.31 1.68 5.62 1 8 C0.34 8 -0.32 8 -1 8 C-1.125 2.25 -1.125 2.25 0 0 Z " fill="#085F25" transform="translate(46,170)"/>
<path d="M0 0 C0.99 0.33 1.98 0.66 3 1 C0.64031256 3.09749995 -0.54616994 3.96905704 -3.75 4.1875 C-4.86375 4.0946875 -4.86375 4.0946875 -6 4 C-6.33 3.01 -6.66 2.02 -7 1 C-5.5459375 1.0309375 -5.5459375 1.0309375 -4.0625 1.0625 C-1.12534105 1.35618499 -1.12534105 1.35618499 0 0 Z " fill="#608B43" transform="translate(156,120)"/>
<path d="M0 0 C3 3 3 3 3.1875 5.6875 C3.0946875 6.8321875 3.0946875 6.8321875 3 8 C2.34 8 1.68 8 1 8 C0.67 8.66 0.34 9.32 0 10 C0 6.7 0 3.4 0 0 Z " fill="#175B2A" transform="translate(45,162)"/>
<path d="M0 0 C2.475 0.495 2.475 0.495 5 1 C4.34 2.32 3.68 3.64 3 5 C2.01 5 1.02 5 0 5 C0 3.35 0 1.7 0 0 Z " fill="#046A22" transform="translate(157,162)"/>
<path d="M0 0 C2.875 -0.125 2.875 -0.125 6 0 C6.66 0.66 7.32 1.32 8 2 C5.36 2.33 2.72 2.66 0 3 C0 2.01 0 1.02 0 0 Z " fill="#1F5B37" transform="translate(61,153)"/>
<path d="M0 0 C0.9075 0.37125 1.815 0.7425 2.75 1.125 C2.75 1.785 2.75 2.445 2.75 3.125 C-0.55 2.465 -3.85 1.805 -7.25 1.125 C-3.25 -0.875 -3.25 -0.875 0 0 Z " fill="#D7362A" transform="translate(87.25,59.875)"/>
<path d="M0 0 C5.75 0.75 5.75 0.75 8 3 C6.02 3.99 4.04 4.98 2 6 C2 5.34 2 4.68 2 4 C2.66 4 3.32 4 4 4 C4 3.34 4 2.68 4 2 C2.68 1.34 1.36 0.68 0 0 Z " fill="#215D33" transform="translate(136,121)"/>
<path d="M0 0 C0.66 0 1.32 0 2 0 C2 0.66 2 1.32 2 2 C3.65 2 5.3 2 7 2 C7.33 2.99 7.66 3.98 8 5 C4.17902761 4.46930939 1.93828597 3.50298434 -1 1 C-0.67 0.67 -0.34 0.34 0 0 Z " fill="#2E5736" transform="translate(94,59)"/>
<path d="M0 0 C3.45925163 1.2491742 6.14693203 2.67527795 9 5 C8.01 5.33 7.02 5.66 6 6 C2.8125 3.625 2.8125 3.625 0 1 C0 0.67 0 0.34 0 0 Z " fill="#12572B" transform="translate(159,56)"/>
<path d="M0 0 C1.51400391 0.01740234 1.51400391 0.01740234 3.05859375 0.03515625 C4.07050781 0.04417969 5.08242187 0.05320312 6.125 0.0625 C7.29869141 0.07990234 7.29869141 0.07990234 8.49609375 0.09765625 C8.49609375 0.42765625 8.49609375 0.75765625 8.49609375 1.09765625 C6.82546875 1.31421875 6.82546875 1.31421875 5.12109375 1.53515625 C1.67467328 1.8813766 1.67467328 1.8813766 -0.50390625 3.09765625 C-1.49390625 2.43765625 -2.48390625 1.77765625 -3.50390625 1.09765625 C-2.50390625 0.09765625 -2.50390625 0.09765625 0 0 Z " fill="#125729" transform="translate(118.50390625,71.90234375)"/>
<path d="M0 0 C0.33 0 0.66 0 1 0 C1 1.98 1 3.96 1 6 C-0.98 5.34 -2.96 4.68 -5 4 C-5 3.34 -5 2.68 -5 2 C-2.525 2.495 -2.525 2.495 0 3 C0 2.01 0 1.02 0 0 Z " fill="#69874F" transform="translate(180,41)"/>
<path d="M0 0 C2.5 1.3125 2.5 1.3125 5 3 C5 3.99 5 4.98 5 6 C2.5 4.6875 2.5 4.6875 0 3 C0 2.01 0 1.02 0 0 Z " fill="#105A27" transform="translate(140,3)"/>
<path d="" fill="#FFFFFF" transform="translate(0,0)"/>
<path d="" fill="#FFFFFF" transform="translate(0,0)"/>
<path d="" fill="#FFFFFF" transform="translate(0,0)"/>
<path d="" fill="#FFFFFF" transform="translate(0,0)"/>
<path d="" fill="#FFFFFF" transform="translate(0,0)"/>
<path d="" fill="#FFFFFF" transform="translate(0,0)"/>
<path d="" fill="#FFFFFF" transform="translate(0,0)"/>
<path d="" fill="#FFFFFF" transform="translate(0,0)"/>
<path d="" fill="#FFFFFF" transform="translate(0,0)"/>
<path d="" fill="#FFFFFF" transform="translate(0,0)"/>
<path d="" fill="#FFFFFF" transform="translate(0,0)"/>
<path d="" fill="#FFFFFF" transform="translate(0,0)"/>
<path d="" fill="#FFFFFF" transform="translate(0,0)"/>
<path d="" fill="#FFFFFF" transform="translate(0,0)"/>
<path d="" fill="#FFFFFF" transform="translate(0,0)"/>
<path d="" fill="#FFFFFF" transform="translate(0,0)"/>
<path d="" fill="#FFFFFF" transform="translate(0,0)"/>
<path d="" fill="#FFFFFF" transform="translate(0,0)"/>
<path d="" fill="#FFFFFF" transform="translate(0,0)"/>
<path d="" fill="#FFFFFF" transform="translate(0,0)"/>
<path d="" fill="#FFFFFF" transform="translate(0,0)"/>
<path d="" fill="#FFFFFF" transform="translate(0,0)"/>
<path d="" fill="#FFFFFF" transform="translate(0,0)"/>
<path d="" fill="#FFFFFF" transform="translate(0,0)"/>
<path d="" fill="#FFFFFF" transform="translate(0,0)"/>
<path d="" fill="#FFFFFF" transform="translate(0,0)"/>
<path d="" fill="#FFFFFF" transform="translate(0,0)"/>
<path d="" fill="#FFFFFF" transform="translate(0,0)"/>
<path d="" fill="#FFFFFF" transform="translate(0,0)"/>
<path d="" fill="#FFFFFF" transform="translate(0,0)"/>
<path d="" fill="#FFFFFF" transform="translate(0,0)"/>
<path d="" fill="#FFFFFF" transform="translate(0,0)"/>
<path d="" fill="#FFFFFF" transform="translate(0,0)"/>
<path d="" fill="#FFFFFF" transform="translate(0,0)"/>
<path d="" fill="#FFFFFF" transform="translate(0,0)"/>
<path d="" fill="#FFFFFF" transform="translate(0,0)"/>
<path d="" fill="#FFFFFF" transform="translate(0,0)"/>
<path d="" fill="#FFFFFF" transform="translate(0,0)"/>
<path d="" fill="#FFFFFF" transform="translate(0,0)"/>
<path d="" fill="#FFFFFF" transform="translate(0,0)"/>
<path d="" fill="#FFFFFF" transform="translate(0,0)"/>
<path d="" fill="#FFFFFF" transform="translate(0,0)"/>
<path d="" fill="#FFFFFF" transform="translate(0,0)"/>
<path d="" fill="#FFFFFF" transform="translate(0,0)"/>
<path d="" fill="#FFFFFF" transform="translate(0,0)"/>
<path d="" fill="#FFFFFF" transform="translate(0,0)"/>
<path d="" fill="#FFFFFF" transform="translate(0,0)"/>
<path d="" fill="#FFFFFF" transform="translate(0,0)"/>
<path d="" fill="#FFFFFF" transform="translate(0,0)"/>
<path d="" fill="#FFFFFF" transform="translate(0,0)"/>
<path d="" fill="#FFFFFF" transform="translate(0,0)"/>
<path d="" fill="#FFFFFF" transform="translate(0,0)"/>
<path d="" fill="#FFFFFF" transform="translate(0,0)"/>
<path d="" fill="#FFFFFF" transform="translate(0,0)"/>
<path d="" fill="#FFFFFF" transform="translate(0,0)"/>
<path d="" fill="#FFFFFF" transform="translate(0,0)"/>
<path d="" fill="#FFFFFF" transform="translate(0,0)"/>
</svg>
